PathFileType	4	(X/Y/Z)	C:/Users/opensim2020/Desktop/walking_exp_matlab/subject01_walking15_straight_02.trc																																																																																																																															
DataRate	CameraRate	NumFrames	NumMarkers	Units	OrigDataRate	OrigDataStartFrame	OrigNumFrames																																																																																																																											
100	100	8	43	mm	100	1195	135																																																																																																																											
Frame#	Time	LFHD			RFHD			LBHD			RBHD			C7			T10			CLAV			STRN			RBAK			LSHO			LUPA			LELB			LFRM			LWRA			LWRB			LFIN			RSHO			RUPA			RELB			RFRM			RWRA			RWRB			RFIN			LASI			RASI			LPSI			RPSI			LTHI			LKNE			LTIB			LANK			LHEE			LTOE			RTHI			RKNE			RTIB			RANK			RHEE			RTOE			*39			*40			*41			*42		
		X1	Y1	Z1	X2	Y2	Z2	X3	Y3	Z3	X4	Y4	Z4	X5	Y5	Z5	X6	Y6	Z6	X7	Y7	Z7	X8	Y8	Z8	X9	Y9	Z9	X10	Y10	Z10	X11	Y11	Z11	X12	Y12	Z12	X13	Y13	Z13	X14	Y14	Z14	X15	Y15	Z15	X16	Y16	Z16	X17	Y17	Z17	X18	Y18	Z18	X19	Y19	Z19	X20	Y20	Z20	X21	Y21	Z21	X22	Y22	Z22	X23	Y23	Z23	X24	Y24	Z24	X25	Y25	Z25	X26	Y26	Z26	X27	Y27	Z27	X28	Y28	Z28	X29	Y29	Z29	X30	Y30	Z30	X31	Y31	Z31	X32	Y32	Z32	X33	Y33	Z33	X34	Y34	Z34	X35	Y35	Z35	X36	Y36	Z36	X37	Y37	Z37	X38	Y38	Z38	X39	Y39	Z39	X40	Y40	Z40	X41	Y41	Z41	X42	Y42	Z42	X43	Y43	Z43
																																																																																																																																		
51	0.5	-305.57504	1677.82202	1047.49036	-266.07648	1686.76807	1154.29309	-409.90463	1621.58044	1084.11975	-371.29349	1630.06152	1198.3446	-423.07028	1438.07581	1115.63037	-468.30255	1146.06641	1122.77795	-277.53448	1370.39844	1109.21924	-239.61929	1212.99268	1102.03723	-479.57095	1249.53381	1195.42566	-344.16174	1405.48682	952.7522	-386.41354	1228.5105	862.29816	-402.97147	1074.95813	855.16223	-336.34503	977.22021	834.43408	-225.72623	894.09222	856.15479	-276.12726	869.83655	834.62604	-208.49358	817.19568	830.33856	-333.45718	1404.88074	1261.53162	-412.01102	1217.59656	1367.72876	-420.0137	1092.43762	1380.54211	-393.09146	974.64557	1413.94519	-315.23306	855.6012	1395.10388	-356.08188	858.47748	1435.36707	-319.70978	778.57422	1436.99597	-300.12131	942.02209	1002.66693	-284.25278	941.38733	1218.14734	-479.43481	948.36951	1064.12048	-469.07498	955.38342	1208.63123	-266.32388	614.21301	931.19702	-256.66275	481.06589	938.50049	-397.75739	363.98553	949.08167	-547.56305	209.24815	1015.31091	-587.93774	213.72572	1078.58521	-478.36526	78.7195	998.2851	-328.1189	603.96014	1269.38562	-316.39841	445.71976	1240.10168	-377.68365	279.5759	1250.6073	-423.4346	78.91105	1208.25452	-480.54959	43.76685	1165.32263	-286.72781	36.93098	1197.68823	-286.49396	1718.24963	1135.6377	-1972.96509	1023.50433	3101.84595	-2012.43018	1022.10315	3140.55249	NaN	NaN	NaN
52	0.51	-292.1991	1677.98767	1046.88477	-252.82266	1686.96887	1153.69812	-396.57632	1621.80652	1083.83997	-358.14578	1630.46118	1197.87366	-410.0358	1438.32666	1115.79272	-455.57782	1146.53369	1123.21997	-264.64056	1370.62244	1108.87292	-227.73232	1213.15063	1101.81665	-466.26358	1250.02869	1196.04028	-331.8269	1405.60938	952.55078	-375.29529	1228.57251	862.80304	-394.7309	1075.38904	857.32697	-332.03809	975.41461	835.36426	-223.88336	887.97943	855.50226	-275.63431	865.87244	834.5365	-210.36668	810.62488	829.2392	-319.88553	1405.46472	1261.22217	-396.78476	1218.24634	1368.51465	-403.93604	1092.69263	1381.36084	-373.29681	975.38672	1414.03674	-291.7688	859.15784	1393.91553	-332.40799	860.30829	1434.44055	-292.97113	782.06635	1435.70398	-287.35266	943.10437	1003.09955	-272.08585	941.28601	1218.66199	-466.8317	949.23126	1063.76868	-456.61374	955.79706	1208.15002	-247.85913	617.54211	930.61816	-235.41595	484.59811	938.04486	-372.78726	363.08594	948.93738	-515.6358	201.058	1014.29803	-556.72345	202.62364	1077.40393	-438.80838	76.35607	994.66656	-321.39185	603.80743	1269.22546	-313.68411	445.16772	1240.57568	-376.75623	279.70737	1250.7063	-423.15387	79.48607	1207.92871	-480.41272	44.53859	1164.90918	-286.4613	36.88852	1197.54138	-273.15689	1718.46948	1135.03113	-1973.11035	1023.71252	3101.8877	-2012.48975	1022.16431	3140.73999	NaN	NaN	NaN
53	0.52	-279.02591	1677.89758	1046.29468	-239.57533	1687.02539	1153.10999	-383.54333	1622.03894	1083.15344	-345.00528	1630.65894	1197.24902	-397.09256	1438.39087	1115.77283	-442.68933	1146.65149	1123.56116	-251.79939	1370.72937	1108.34009	-214.89067	1213.29663	1101.47095	-453.04855	1250.38696	1196.573	-319.45935	1405.54932	952.27228	-364.10455	1228.28186	863.32556	-386.00726	1075.44873	859.69537	-327.49985	973.60925	836.35974	-222.26064	882.03107	854.87384	-275.30505	862.10089	834.68524	-212.37648	804.33716	828.1626	-306.3389	1406.12	1260.89417	-381.59567	1218.69519	1369.00989	-387.92004	1092.79639	1382.06921	-353.53546	976.0387	1413.92114	-268.39145	862.78174	1392.50598	-308.75888	862.23962	1433.30042	-266.40292	785.7525	1434.09497	-274.46909	943.99451	1003.50653	-260.00809	940.91028	1218.96301	-454.42453	949.89093	1063.40076	-444.32922	955.94568	1207.66687	-230.14752	620.57928	929.97906	-214.96402	487.91968	937.71521	-347.63745	361.13248	948.47235	-483.22415	192.22108	1012.71332	-524.38269	190.78723	1076.06738	-399.23666	73.11129	990.9079	-314.73093	603.66632	1269.29651	-311.13272	444.82306	1241.06213	-375.57251	280.06836	1250.70691	-422.99814	80.14619	1207.85938	-480.09698	45.36861	1164.34131	-286.3486	36.93185	1197.54529	-259.90002	1718.51343	1134.31812	-1973.14685	1023.46484	3101.87744	-2012.43872	1022.12244	3140.75269	NaN	NaN	NaN
54	0.53	-265.82468	1677.69714	1045.44983	-226.41321	1686.94165	1152.32495	-370.34268	1621.85095	1082.18713	-331.8483	1630.729	1196.48022	-384.02087	1438.27576	1115.67969	-429.93417	1146.73035	1123.96155	-239.0006	1370.54065	1107.81921	-202.02316	1213.15356	1101.08911	-439.8371	1250.55786	1197.08472	-306.93359	1405.22864	951.83167	-352.93573	1227.68262	863.9303	-377.36548	1075.58875	861.48303	-322.80328	971.90747	837.41089	-221.19615	876.26929	854.2254	-275.15921	858.5462	835.06952	-214.42328	798.41168	827.01605	-292.80096	1406.41235	1260.50256	-366.56696	1219.01672	1369.42041	-371.99146	1092.76758	1382.73572	-333.91519	976.72058	1413.7644	-245.18907	866.53162	1390.97595	-285.24646	864.2619	1431.99231	-240.14415	789.78046	1432.41748	-261.74371	944.6521	1003.85614	-247.94513	940.40125	1219.30298	-441.77615	950.24097	1063.005	-432.14389	955.67859	1207.21851	-212.97891	623.26807	929.33234	-194.97211	491.11032	937.51306	-322.37378	358.20166	947.69427	-449.93097	182.49969	1010.73328	-491.03952	178.17842	1074.53723	-359.5535	69.54768	986.72626	-308.34259	603.61609	1269.26086	-308.22391	444.89688	1241.53333	-374.16138	280.59311	1250.54492	-422.37555	80.76257	1207.34131	-479.44464	46.52641	1163.77319	-286.09354	36.99057	1197.47046	-246.6582	1718.43958	1133.49255	-1973.17151	1023.60004	3101.89429	-2012.4978	1022.09888	3140.74023	NaN	NaN	NaN
55	0.54	-252.5742	1677.26733	1044.64331	-213.25429	1686.71094	1151.37	-357.20975	1621.60645	1081.61682	-318.85339	1630.44141	1195.31738	-370.97403	1438.05005	1115.49707	-417.01154	1146.59338	1124.28601	-226.1172	1370.32983	1107.19641	-189.24648	1212.94373	1100.69971	-426.59537	1250.56421	1197.48608	-294.43832	1404.73828	951.35492	-341.83084	1226.89624	864.45886	-368.36142	1075.46594	862.87305	-317.81467	970.26343	838.48602	-219.76619	870.73651	853.80164	-274.49844	855.04926	835.51233	-216.62645	793.099	825.7774	-279.28876	1406.56091	1259.95422	-351.64175	1219.17029	1369.75049	-356.09473	1092.60388	1383.26917	-314.34073	977.32733	1413.41663	-222.21317	870.41595	1389.26941	-261.86389	866.41937	1430.50024	-214.02898	793.96588	1430.49084	-249.05046	945.01495	1004.18933	-235.9167	939.69708	1219.51025	-429.24731	950.31714	1062.59863	-420.12238	955.19836	1206.83044	-196.3717	625.56897	928.59735	-175.6228	493.77039	937.44379	-297.11087	354.34943	946.67059	-416.0462	172.27853	1008.91248	-456.25726	164.54755	1072.88428	-318.82489	66.01441	982.87549	-301.44708	603.53296	1269.04517	-304.7326	444.68588	1241.65564	-372.32184	281.27377	1250.34131	-422.15015	81.60254	1206.75049	-479.19589	47.6495	1163.03687	-285.97739	36.99033	1197.41772	-233.49318	1718.19714	1132.60083	-1973.11133	1023.91821	3101.93066	-2012.48425	1022.07062	3140.64941	NaN	NaN	NaN
56	0.55	-239.47226	1676.96411	1043.41846	-200.08611	1686.35486	1150.49731	-344.04315	1621.13892	1080.62036	-305.71255	1630.18713	1194.41541	-357.85437	1437.68579	1115.11853	-404.14227	1146.27893	1124.58203	-213.16774	1369.81897	1106.54114	-176.3694	1212.42053	1100.24866	-413.37799	1250.3938	1197.82629	-281.91943	1404.07349	950.69824	-330.77188	1225.96033	864.99261	-359.3056	1075.41589	864.1864	-312.7872	968.64148	839.46985	-218.2924	865.48267	853.40149	-273.79398	851.96509	836.05365	-218.69757	788.10742	824.66077	-265.72412	1406.58765	1259.38611	-336.8533	1219.14026	1369.91235	-340.26273	1092.27625	1383.72998	-294.89337	977.95184	1412.98962	-199.5118	874.35602	1387.47192	-238.65294	868.69843	1428.89038	-188.20699	798.24237	1428.39099	-235.47778	945.4881	1003.97345	-224.17778	938.48218	1219.62878	-416.75623	950.11194	1062.17664	-408.0704	954.46442	1206.33447	-180.11499	627.38916	927.93219	-156.90919	495.93158	937.54547	-271.94656	349.81363	945.46851	-381.56766	161.80795	1006.78979	-420.79019	150.68056	1071.04688	-277.92044	62.69324	978.30115	-294.48849	603.18359	1268.85046	-301.035	444.47839	1241.49329	-369.98743	281.79535	1249.8988	-421.70087	82.61942	1206.13367	-478.85822	49.0321	1162.12903	-286.02393	36.75709	1197.15662	-220.33249	1717.78918	1131.49292	-1972.98596	1023.98169	3102.04688	-2012.46912	1022.12469	3140.71338	NaN	NaN	NaN
57	0.56	-226.20674	1676.01538	1042.46582	-186.95152	1685.85474	1149.33875	-330.89001	1620.47559	1079.49304	-292.56146	1629.74609	1193.34265	-344.68161	1437.19421	1114.60327	-391.12198	1145.77502	1124.74207	-200.21053	1369.17041	1105.84924	-163.41721	1211.7373	1099.7301	-400.18436	1250.06238	1197.97473	-269.1413	1403.23718	949.97314	-319.75964	1225.00061	865.37488	-349.76633	1074.97742	865.56891	-307.21368	967.11353	840.42273	-216.69646	860.38196	853.22131	-272.93475	849.14478	836.97095	-220.73392	783.61096	823.64178	-252.26071	1406.32825	1258.67639	-322.1265	1218.83765	1369.81616	-324.44217	1091.797	1384.0957	-275.65332	978.47791	1412.42493	-177.04623	878.30695	1385.55457	-215.63463	871.06519	1427.27014	-162.72752	802.5636	1426.19727	-222.75864	945.28375	1004.08667	-211.883	937.62872	1219.88391	-404.27805	949.61115	1061.71191	-396.04993	953.57404	1205.87231	-164.17067	628.797	927.37079	-138.93694	497.43204	937.69232	-246.92776	344.82449	944.21246	-345.85764	150.78966	1004.41583	-384.41907	136.22374	1068.51172	-236.3268	59.69138	973.9071	-287.5864	602.89722	1268.80408	-297.20731	444.36148	1241.40405	-367.49844	282.38623	1249.31702	-421.24799	83.72238	1205.56848	-478.39426	50.56256	1161.16382	-286.07034	36.5589	1197.06006	-207.1721	1717.2749	1130.26892	-1973.02026	1023.39777	3101.85278	-2012.5636	1022.10291	3140.65869	NaN	NaN	NaN
58	0.57	-213.02547	1675.2373	1041.42981	-173.77596	1685.23975	1148.13989	-317.30872	1619.71204	1078.5365	-279.42548	1629.22949	1192.26086	-331.55798	1436.63354	1114.01282	-378.27567	1145.21899	1124.77856	-187.13759	1368.35742	1105.03101	-150.60295	1210.78113	1099.11536	-386.96335	1249.63025	1197.96985	-256.29572	1402.22034	949.12488	-308.96671	1224.04419	865.34863	-340.17218	1074.62244	866.71466	-301.28979	965.62604	841.30804	-214.83568	855.60913	852.98962	-271.74164	846.54938	837.61127	-222.40894	779.42322	822.70819	-238.86436	1406.026	1258.18298	-307.53186	1218.36914	1369.474	-308.64969	1091.1803	1384.33252	-256.08698	978.93201	1411.49219	-154.88307	882.29187	1383.6416	-192.8851	873.5448	1425.448	-137.67281	807.00653	1423.79968	-209.9601	944.86548	1004.03436	-199.65082	936.48126	1220.01355	-391.76151	948.86621	1061.16602	-383.88071	952.59949	1205.20361	-148.41747	629.78864	926.94342	-121.53203	498.41159	937.89832	-222.02882	339.40762	943.04126	-309.36179	139.75156	1001.6969	-346.57755	121.76401	1065.88928	-194.03523	56.70419	969.24908	-280.59897	602.63544	1268.73572	-293.11264	443.96353	1241.14551	-364.9826	283.08908	1248.82056	-420.73431	84.94916	1205.07666	-478.15265	52.48429	1160.50574	-286.08704	36.42437	1196.96338	-193.99245	1716.74341	1129.16956	-1973.00281	1024.02856	3102.12256	-2012.55078	1022.05426	3140.6626	NaN	NaN	NaN
